<svg width="18" height="18" viewBox="0 0 18 18" fill="none" xmlns="http://www.w3.org/2000/svg">
<path d="M4.83333 10.6667C4.46957 10.6672 4.11031 10.7471 3.78062 10.9008C3.45093 11.0546 3.15876 11.2784 2.92449 11.5567C2.69023 11.835 2.51952 12.161 2.42427 12.5121C2.32903 12.8632 2.31154 13.2308 2.37304 13.5893C2.43454 13.9478 2.57353 14.2886 2.78033 14.5879C2.98712 14.8872 3.25674 15.1377 3.57035 15.322C3.88396 15.5063 4.23402 15.62 4.59609 15.655C4.95815 15.6901 5.32351 15.6457 5.66666 15.525" stroke="#FFB21E" stroke-width="1.25" stroke-linecap="round" stroke-linejoin="round"/>
<path d="M2.55333 12.0042C2.05463 11.7641 1.62357 11.4036 1.29904 10.9552C0.974514 10.5069 0.766737 9.98477 0.694465 9.43603C0.622192 8.88729 0.687699 8.32918 0.885072 7.81209C1.08244 7.295 1.40547 6.83519 1.825 6.47417M1.85 6.40667C1.5767 5.99771 1.45692 5.50524 1.51185 5.01644C1.56678 4.52765 1.79289 4.07405 2.15015 3.73596C2.5074 3.39786 2.97276 3.19707 3.46384 3.16914C3.95492 3.14121 4.44004 3.28793 4.83333 3.58333M5.03167 3.6375C4.89873 3.35504 4.83097 3.04631 4.8334 2.73414C4.83582 2.42196 4.90838 2.11433 5.04569 1.83397C5.18301 1.55361 5.38158 1.30769 5.62672 1.11439C5.87186 0.921099 6.15731 0.785367 6.46197 0.717232C6.76663 0.649097 7.0827 0.650301 7.38683 0.720754C7.69096 0.791207 7.97537 0.929108 8.21903 1.12426C8.46269 1.31942 8.65938 1.56684 8.79456 1.84824C8.92974 2.12964 8.99995 2.43782 9 2.75V15.6667C9 16.1087 8.8244 16.5326 8.51184 16.8452C8.19928 17.1577 7.77536 17.3333 7.33333 17.3333C6.8913 17.3333 6.46738 17.1577 6.15482 16.8452C5.84226 16.5326 5.66667 16.1087 5.66667 15.6667M9 4.83333C9 5.49638 9.26339 6.13226 9.73223 6.6011C10.2011 7.06994 10.837 7.33333 11.5 7.33333M13.1667 10.6667C13.5304 10.6672 13.8897 10.7471 14.2194 10.9008C14.5491 11.0546 14.8412 11.2784 15.0755 11.5567C15.3098 11.8349 15.4805 12.161 15.5757 12.5121C15.671 12.8632 15.6885 13.2308 15.627 13.5893C15.5655 13.9478 15.4265 14.2886 15.2197 14.5879C15.0129 14.8872 14.7433 15.1377 14.4296 15.322C14.116 15.5063 13.766 15.62 13.4039 15.655C13.0418 15.6901 12.6765 15.6457 12.3333 15.525" stroke="#FFB21E" stroke-width="1.25" stroke-linecap="round" stroke-linejoin="round"/>
<path d="M15.4467 12.0042C15.9454 11.7641 16.3764 11.4036 16.701 10.9552C17.0255 10.5069 17.2333 9.98477 17.3055 9.43603C17.3778 8.88729 17.3123 8.32918 17.1149 7.81209C16.9176 7.295 16.5945 6.83519 16.175 6.47417M16.15 6.40667C16.4233 5.99771 16.5431 5.50524 16.4881 5.01644C16.4332 4.52765 16.2071 4.07405 15.8499 3.73596C15.4926 3.39786 15.0272 3.19707 14.5362 3.16914C14.0451 3.14121 13.56 3.28793 13.1667 3.58333M9 2.75C9.00005 2.43782 9.07026 2.12964 9.20544 1.84824C9.34062 1.56684 9.53731 1.31942 9.78097 1.12426C10.0246 0.929108 10.309 0.791207 10.6132 0.720754C10.9173 0.650301 11.2334 0.649097 11.538 0.717232C11.8427 0.785367 12.1281 0.921099 12.3733 1.11439C12.6184 1.30769 12.817 1.55361 12.9543 1.83397C13.0916 2.11433 13.1642 2.42196 13.1666 2.73414C13.169 3.04631 13.1013 3.35504 12.9683 3.6375M12.3333 15.6667C12.3333 16.1087 12.1577 16.5326 11.8452 16.8452C11.5326 17.1577 11.1087 17.3333 10.6667 17.3333C10.2246 17.3333 9.80072 17.1577 9.48816 16.8452C9.1756 16.5326 9 16.1087 9 15.6667" stroke="#FFB21E" stroke-width="1.25" stroke-linecap="round" stroke-linejoin="round"/>
</svg>
